REM DIRINDEX 1\2\5,1\2\6,1\3\7,1\3\8,1\4\9,1\4\10
REM DIRNAME cjc079,folder01,folder02,folder03,folder04,folder05,folder06,folder07,folder08,folder09
TITLE ""
FILE "Track22.mp3" MP3
  TRACK 01 AUDIO
    TITLE "8:cjc079_0629"
    INDEX 01 00:00:00
  TRACK 02 AUDIO
    TITLE "8:cjc079_0630"
    INDEX 01 00:02:28
  TRACK 03 AUDIO
    TITLE "7:cjc079_0631"
    INDEX 01 00:04:29
  TRACK 04 AUDIO
    TITLE "0:"
    INDEX 01 00:05:50
  TRACK 05 AUDIO
    TITLE "7:cjc079_0632"
    INDEX 01 00:06:26
  TRACK 06 AUDIO
    TITLE "0:"
    INDEX 01 00:07:47
  TRACK 07 AUDIO
    TITLE "7:cjc079_0633"
    INDEX 01 00:09:22
  TRACK 08 AUDIO
    TITLE "0:"
    INDEX 01 00:10:47
  TRACK 09 AUDIO
    TITLE "7:cjc079_0634"
    INDEX 01 00:11:21
  TRACK 10 AUDIO
    TITLE "0:"
    INDEX 01 00:12:44
  TRACK 11 AUDIO
    TITLE "7:cjc079_0635"
    INDEX 01 00:14:19
  TRACK 12 AUDIO
    TITLE "0:"
    INDEX 01 00:15:36
  TRACK 13 AUDIO
    TITLE "7:cjc079_0636"
    INDEX 01 00:16:06
  TRACK 14 AUDIO
    TITLE "0:"
    INDEX 01 00:17:23
  TRACK 15 AUDIO
    TITLE "7:cjc079_0637"
    INDEX 01 00:18:72
  TRACK 16 AUDIO
    TITLE "0:"
    INDEX 01 00:20:08
  TRACK 17 AUDIO
    TITLE "7:cjc079_0638"
    INDEX 01 00:20:53
  TRACK 18 AUDIO
    TITLE "0:"
    INDEX 01 00:21:66
  TRACK 19 AUDIO
    TITLE "8:cjc079_0639"
    INDEX 01 00:23:36
  TRACK 20 AUDIO
    TITLE "7:cjc079_0640"
    INDEX 01 00:25:52
  TRACK 21 AUDIO
    TITLE "0:"
    INDEX 01 00:27:02
  TRACK 22 AUDIO
    TITLE "7:cjc079_0641"
    INDEX 01 00:27:55
  TRACK 23 AUDIO
    TITLE "0:"
    INDEX 01 00:29:05
  TRACK 24 AUDIO
    TITLE "7:cjc079_0642"
    INDEX 01 00:30:55
  TRACK 25 AUDIO
    TITLE "0:"
    INDEX 01 00:32:03
  TRACK 26 AUDIO
    TITLE "7:cjc079_0643"
    INDEX 01 00:32:48
  TRACK 27 AUDIO
    TITLE "0:"
    INDEX 01 00:33:71
  TRACK 28 AUDIO
    TITLE "7:cjc079_0644"
    INDEX 01 00:35:47
  TRACK 29 AUDIO
    TITLE "0:"
    INDEX 01 00:36:68
  TRACK 30 AUDIO
    TITLE "7:cjc079_0645"
    INDEX 01 00:37:46
  TRACK 31 AUDIO
    TITLE "0:"
    INDEX 01 00:38:65
  TRACK 32 AUDIO
    TITLE "7:cjc079_0646"
    INDEX 01 00:40:42
  TRACK 33 AUDIO
    TITLE "0:"
    INDEX 01 00:41:67
  TRACK 34 AUDIO
    TITLE "7:cjc079_0647"
    INDEX 01 00:42:41
  TRACK 35 AUDIO
    TITLE "0:"
    INDEX 01 00:43:68
  TRACK 36 AUDIO
    TITLE "8:cjc079_0648"
    INDEX 01 00:45:41
  TRACK 37 AUDIO
    TITLE "7:cjc079_0649"
    INDEX 01 00:47:60
  TRACK 38 AUDIO
    TITLE "0:"
    INDEX 01 00:49:08
  TRACK 39 AUDIO
    TITLE "7:cjc079_0650"
    INDEX 01 00:49:59
  TRACK 40 AUDIO
    TITLE "0:"
    INDEX 01 00:51:05
  TRACK 41 AUDIO
    TITLE "7:cjc079_0651"
    INDEX 01 00:52:57
  TRACK 42 AUDIO
    TITLE "0:"
    INDEX 01 00:54:05
  TRACK 43 AUDIO
    TITLE "7:cjc079_0652"
    INDEX 01 00:54:54
  TRACK 44 AUDIO
    TITLE "0:"
    INDEX 01 00:56:02
  TRACK 45 AUDIO
    TITLE "7:cjc079_0653"
    INDEX 01 00:57:56
  TRACK 46 AUDIO
    TITLE "0:"
    INDEX 01 00:59:00
  TRACK 47 AUDIO
    TITLE "7:cjc079_0654"
    INDEX 01 00:59:47
  TRACK 48 AUDIO
    TITLE "0:"
    INDEX 01 01:00:66
  TRACK 49 AUDIO
    TITLE "7:cjc079_0655"
    INDEX 01 01:02:40
  TRACK 50 AUDIO
    TITLE "0:"
    INDEX 01 01:03:49
  TRACK 51 AUDIO
    TITLE "7:cjc079_0656"
    INDEX 01 01:04:21
  TRACK 52 AUDIO
    TITLE "0:"
    INDEX 01 01:05:32
  TRACK 53 AUDIO
    TITLE "8:cjc079_0657"
    INDEX 01 01:07:02
  TRACK 54 AUDIO
    TITLE "7:cjc079_0658"
    INDEX 01 01:09:22
  TRACK 55 AUDIO
    TITLE "0:"
    INDEX 01 01:10:43
  TRACK 56 AUDIO
    TITLE "7:cjc079_0659"
    INDEX 01 01:11:15
  TRACK 57 AUDIO
    TITLE "0:"
    INDEX 01 01:12:36
  TRACK 58 AUDIO
    TITLE "7:cjc079_0660"
    INDEX 01 01:14:06
  TRACK 59 AUDIO
    TITLE "0:"
    INDEX 01 01:15:23
  TRACK 60 AUDIO
    TITLE "7:cjc079_0661"
    INDEX 01 01:15:64
  TRACK 61 AUDIO
    TITLE "0:"
    INDEX 01 01:17:08
  TRACK 62 AUDIO
    TITLE "7:cjc079_0662"
    INDEX 01 01:18:53
  TRACK 63 AUDIO
    TITLE "0:"
    INDEX 01 01:19:74
  TRACK 64 AUDIO
    TITLE "7:cjc079_0663"
    INDEX 01 01:20:48
  TRACK 65 AUDIO
    TITLE "0:"
    INDEX 01 01:21:65
  TRACK 66 AUDIO
    TITLE "7:cjc079_0664"
    INDEX 01 01:23:42
  TRACK 67 AUDIO
    TITLE "0:"
    INDEX 01 01:24:55
  TRACK 68 AUDIO
    TITLE "7:cjc079_0665"
    INDEX 01 01:25:37
  TRACK 69 AUDIO
    TITLE "0:"
    INDEX 01 01:26:52
  TRACK 70 AUDIO
    TITLE "8:cjc079_0666"
    INDEX 01 01:28:31
  TRACK 71 AUDIO
    TITLE "7:cjc079_0667"
    INDEX 01 01:30:52
  TRACK 72 AUDIO
    TITLE "0:"
    INDEX 01 01:31:61
  TRACK 73 AUDIO
    TITLE "7:cjc079_0668"
    INDEX 01 01:32:37
  TRACK 74 AUDIO
    TITLE "0:"
    INDEX 01 01:33:46
  TRACK 75 AUDIO
    TITLE "7:cjc079_0669"
    INDEX 01 01:35:20
  TRACK 76 AUDIO
    TITLE "0:"
    INDEX 01 01:36:35
  TRACK 77 AUDIO
    TITLE "7:cjc079_0670"
    INDEX 01 01:37:07
  TRACK 78 AUDIO
    TITLE "0:"
    INDEX 01 01:38:20
  TRACK 79 AUDIO
    TITLE "7:cjc079_0671"
    INDEX 01 01:39:72
  TRACK 80 AUDIO
    TITLE "0:"
    INDEX 01 01:41:09
  TRACK 81 AUDIO
    TITLE "7:cjc079_0672"
    INDEX 01 01:41:57
  TRACK 82 AUDIO
    TITLE "0:"
    INDEX 01 01:42:65
  TRACK 83 AUDIO
    TITLE "7:cjc079_0673"
    INDEX 01 01:44:40
  TRACK 84 AUDIO
    TITLE "0:"
    INDEX 01 01:45:53
  TRACK 85 AUDIO
    TITLE "7:cjc079_0674"
    INDEX 01 01:46:23
  TRACK 86 AUDIO
    TITLE "0:"
    INDEX 01 01:47:35
